<svg xmlns="http://www.w3.org/2000/svg" width="512" height="512"><path d="M509.95 298.9c-3.12-3.75-8.68-4.24-12.43-1.13l-46.18 38.5-38.5-46.36c-1.67-2-4.15-3.3-6.77-3.3h-26.62c-.37-11-1.5-24.3-3.35-35.3h21.14c4.88 0 7.73-3.6 7.73-8.5v-50.3l34.38-50.7c2.7-4 1.88-9.5-2.18-12.2-4.06-2.7-9.4-1.6-12.1 2.5l-35.8 52.9c-.96 1.5-1.96 3.2-1.96 4.9v43.8h-14.7c-5.7-24.2-14.9-47.2-27.2-66.5-1.6-2.5-4.4-4.1-7.4-4.1h-12.9l-3.9-19.5c-2.4-11.9-11.8-25.9-22-32.7l-5.6-3.7C322 46.5 416.2 22.2 417.2 22c4.7-1.2 7.6-5.97 6.4-10.7-1.2-4.73-5.9-7.6-10.7-6.4-4.3 1.06-101 25.94-134.1 92.46l-2.92-1.96c-11.2-7.5-28.1-7.5-39.3 0l-2.94 1.9c-33.25-66.6-130-91.5-134.3-92.6-4.76-1.24-9.5 1.67-10.7 6.4-1.17 4.72 1.7 9.52 6.43 10.7.98.25 95.16 24.55 123.6 85.24L213 110.8c-10.1 6.78-19.6 20.7-21.9 32.6l-3.98 19.6h-13c-3 0-5.8 1.55-7.43 4.1-12.3 19.25-21.5 42.25-27.2 66.5h-17v-43.8c0-1.72 0-3.43-1-4.9l-35-52.94c-2.7-4.1-8-5.2-12.1-2.5-4 2.7-5.6 8.1-2.9 12.2l33.4 50.7v50.3c0 4.86 5.1 8.5 10 8.5H136c-1.86 11-2.98 24.25-3.36 35.3h-26.7c-2.6 0-5.1 1.3-6.76 3.3L60.68 336 14.5 297.6c-3.75-3.1-9.3-2.6-12.43 1.14-3.12 3.75-2.62 9.33 1.13 12.45l52.94 44.1c1.65 1.3 3.66 2 5.65 2 2.5 0 5-1.3 6.7-3.4L110 304h22.2c0 8.84-.2 14.96-.3 22.1-.2 10.7-.4 21.17-.3 31.2-1.08.1-2.16.4-3.18.9l-18.2 8.84c-3 1.5-5.45 4.6-5.45 7.94v66.2l-66.5 50.4c-3.9 2.9-4.46 8.43-1.5 12.33 1.7 2.4 4.5 3.6 7.2 3.6 1.82 0 3.75-.6 5.34-1.8l70.1-53c2.2-1.7 3-4.3 3-7.1v-65.1l9.1-4.3c1.6 30.4 7.8 56.3 26.3 75.2 19.5 19.9 51.7 29.6 98 29.6s78.4-9.62 97.9-29.52c18.6-18.9 24-44.85 25.5-75.2l8.1 4.3v65.18c0 2.8 1.9 5.4 4.1 7.1l70.9 52.96c1.6 1.2 3.6 1.77 5.46 1.77 2.65 0 5.4-1.2 7.1-3.5 2.9-3.9 1.6-9.48-2.3-12.4L405 441.4v-66.2c0-3.35-1.34-6.4-4.33-7.9l-17.38-8.82c-1.1-.5-2-.8-3.1-.88 0-10-.1-20.57-.3-31.26-.2-7.15-.2-13.27-.3-22.1h22.2l41.5 49.96c1.7 2.1 4.2 3.26 6.7 3.26 2 0 4-.63 5.6-2l52.96-44.12c3.76-3.12 4.26-8.68 1.14-12.43zm-301.72-152c1.46-7.33 8.22-17.3 14.46-21.47l23.4-15.6c5.1-3.44 14.5-3.42 19.7.02l11.9 7.96v.1l11.5 7.7c6.2 4.2 13 14.1 14.4 21.4l3.2 16.1h-102L208 147zm37.84 316.4c-35.3-1.06-61.02-8.98-75.85-24.1-22.9-23.37-21.52-64.6-20.56-112.36.2-10.1.4-20.67.4-31.28 0-2.95.07-6.8.16-9h95.85V463.3zM151.4 268.9c3.33-33.1 12.8-64 27.57-88.26h154.07c14.77 24.27 24.24 55.17 27.56 88.27H151.4zm189.3 170.3c-14.84 15.12-39.44 23.04-76.96 24.1V286.6h98.06c.1 2.2.15 6.04.15 9 0 10.6-.07 21.08.14 31.2.9 47.74 1.5 89.06-21.4 112.42z" fill="#d2d2d2"/></svg>