<svg xmlns="http://www.w3.org/2000/svg" viewBox="0 0 512 512" width="512" height="512"><path d="M437.02 74.98C388.666 26.63 324.38 0 256 0 196.696 0 138.885 20.747 93.213 58.417c-3.672 3.027-4.193 8.458-1.165 12.13 3.03 3.67 8.46 4.19 12.13 1.163C146.77 36.58 200.688 17.232 256 17.232c131.657 0 238.767 107.11 238.766 238.768 0 59.105-21.77 115.828-61.3 159.722-3.182 3.536-2.898 8.984.64 12.168 1.646 1.483 3.707 2.214 5.763 2.214 2.355 0 4.703-.962 6.404-2.85C488.66 380.19 512 319.37 512 255.998c0-68.38-26.63-132.667-74.98-181.02zM421.677 439.89c-3.063-3.642-8.497-4.114-12.14-1.05-42.9 36.064-97.43 55.926-153.538 55.926C124.34 494.766 17.23 387.656 17.23 256c0-59.933 22.307-117.248 62.813-161.385 3.218-3.506 2.985-8.956-.522-12.174-3.507-3.217-8.96-2.98-12.174.524C23.916 130.29 0 191.74 0 256c0 68.38 26.628 132.668 74.98 181.02C123.333 485.37 187.62 512 256 512c60.16 0 118.625-21.297 164.626-59.97 3.643-3.062 4.113-8.497 1.05-12.14z" fill="#54676e"/><path d="M289.368 189.06h-66.735c-4.76 0-8.616 3.86-8.616 8.617v225.8c0 4.757 3.857 8.615 8.616 8.615h66.735c4.76 0 8.616-3.858 8.616-8.617V197.677c0-4.76-3.857-8.616-8.616-8.616zm-8.615 225.8H231.25V206.293h49.503V414.86zM256 78.7c-26.43 0-47.93 21.503-47.93 47.93 0 26.43 21.5 47.93 47.93 47.93s47.93-21.5 47.93-47.93c0-26.428-21.5-47.93-47.93-47.93zm0 78.63c-16.927 0-30.698-13.772-30.698-30.7 0-16.926 13.772-30.697 30.698-30.697 16.927 0 30.698 13.77 30.698 30.698s-13.77 30.7-30.698 30.7z" fill="#54676e"/></svg>