<svg xmlns="http://www.w3.org/2000/svg" width="512" height="512"><g fill="#54676e"><path d="M337.56 189.25l-5.03 29.3c-.77 4.5 1.04 8.95 4.73 11.62 2.04 1.5 4.46 2.28 7 2.28 1.9 0 3.82-.48 5.52-1.37l26.3-13.83 26.3 13.82c1.7.9 3.62 1.38 5.55 1.38 2.52 0 4.93-.8 7-2.27 3.68-2.68 5.5-7.14 4.72-11.63l-5.03-29.3 21.3-20.74c3.25-3.1 4.4-7.8 3-12.1-1.4-4.3-5.1-7.4-9.6-8.1L399.9 144l-13.15-26.67c-2.02-4.1-6.1-6.6-10.66-6.6-4.6 0-8.7 2.53-10.7 6.6L352.2 144l-29.4 4.26c-4.52.66-8.2 3.75-9.6 8.1-1.42 4.32-.26 9 3 12.18l21.3 20.75zm21.26-29.88c2.63-.38 4.9-2.04 6.1-4.43l11.17-22.64 11.1 22.64c1.2 2.4 3.4 4.05 6.1 4.43l25 3.63-18.1 17.62c-1.9 1.86-2.8 4.54-2.4 7.17l4.3 24.8-22.37-11.8c-1.18-.6-2.48-.96-3.77-.96-1.3 0-2.6.3-3.78.92L349.8 212.5l4.26-24.9c.45-2.63-.4-5.3-2.33-7.18l-18-17.5 25-3.65z"/><path d="M445.9 429.5c-8.3.9-16.66 1.35-24.87 1.35-54.2 0-106.7-19.35-147.86-54.5-3.4-2.9-8.52-2.48-11.42.92-2.9 3.4-2.5 8.5.9 11.42 44.1 37.6 100.33 58.3 158.38 58.3h1.9c-41.56 31.5-92.2 48.7-144.94 48.7-132.3.1-239.8-107.5-239.8-239.7-.1-127.4 99.7-231.9 225.2-239.4-54.5 46.2-86.47 114.2-86.47 186.4 0 62.6 23.7 122.2 66.73 167.64 3.05 3.25 8.2 3.4 11.43.32s3.4-8.2.3-11.48c-40.15-42.47-62.27-98.07-62.27-156.56 0-75.2 37.05-145.5 99.1-188 2.88-2 4.17-5.6 3.2-9C294.5 2.7 291.5.3 288 .2c-3.7-.13-6.98-.2-10-.2-68.4 0-132.7 26.63-181.04 74.98C48.6 123.33 22 187.62 22 256s26.6 132.67 74.97 181.02C145.32 485.37 209.6 512 278 512c64.87 0 126.77-24.34 174.28-68.52 2.56-2.38 3.3-6.13 1.85-9.3-1.45-3.18-4.76-5.06-8.24-4.7z"/><path d="M327.46 325.24c0 18.14 14.76 32.9 32.9 32.9s32.9-14.76 32.9-32.9-14.76-32.9-32.9-32.9-32.9 14.76-32.9 32.9zm49.6 0c0 9.2-7.5 16.7-16.7 16.7s-16.7-7.5-16.7-16.7 7.5-16.7 16.7-16.7 16.7 7.5 16.7 16.7zM472.7 256c-9.56 0-17.3 7.75-17.3 17.32 0 9.56 7.74 17.3 17.3 17.3s17.3-7.74 17.3-17.3c0-9.57-7.74-17.32-17.3-17.32z"/></g></svg>