<svg xmlns="http://www.w3.org/2000/svg" viewBox="0 0 53 53" width="512" height="512"><g fill="#54676e"><path d="M37.467 46.633c-.59.226-1.2.427-1.81.597-.532.147-.844.7-.695 1.23.123.443.524.732.962.732.09 0 .18-.012.27-.037.67-.186 1.338-.406 1.986-.653.517-.197.774-.775.578-1.29-.197-.517-.78-.775-1.29-.58zM42.475 43.894c-.508.376-1.04.734-1.583 1.064-.472.287-.622.902-.335 1.374.188.31.518.48.855.48.177 0 .356-.047.52-.146.594-.36 1.178-.754 1.734-1.166.443-.33.536-.955.208-1.4-.33-.442-.953-.536-1.4-.206zM31.906 47.914c-.628.057-1.27.086-1.906.086-.553 0-1 .447-1 1s.447 1 1 1c.697 0 1.398-.03 2.086-.094.55-.05.956-.536.906-1.086s-.544-.965-1.086-.906zM50.738 34.43c-.51-.21-1.095.033-1.305.545-.24.587-.512 1.17-.805 1.73-.255.488-.065 1.093.424 1.35.147.076.306.112.462.112.36 0 .71-.195.888-.537.32-.613.617-1.25.88-1.895.21-.51-.033-1.095-.544-1.305zM51.97 28.572c-.54-.07-1.046.33-1.11.877-.074.63-.178 1.265-.307 1.883-.113.54.232 1.07.773 1.184.07.015.138.02.206.02.463 0 .88-.322.978-.794.142-.677.255-1.37.336-2.062.064-.547-.328-1.043-.877-1.108zM46.565 39.91c-.392.5-.81.987-1.24 1.45-.38.4-.358 1.034.045 1.412.192.18.438.27.684.27.267 0 .532-.105.73-.315.473-.504.93-1.038 1.357-1.587.34-.436.264-1.063-.172-1.403-.436-.34-1.064-.263-1.403.172zM52 27c.553 0 1-.447 1-1C53 13.317 42.683 3 30 3 18.093 3 8.272 12.094 7.115 23.7l-5.408-5.407c-.39-.39-1.023-.39-1.414 0s-.39 1.023 0 1.414l7 7c.09.092.202.165.325.216.122.05.252.077.382.077s.26-.026.382-.077c.123-.05.234-.124.326-.217l7-7c.39-.39.39-1.022 0-1.413s-1.024-.39-1.415 0L9.177 23.41C10.46 13.05 19.3 5 30 5c11.58 0 21 9.42 21 21 0 .553.447 1 1 1z"/></g></svg>