<svg xmlns="http://www.w3.org/2000/svg" viewBox="0 0 512 512" width="512" height="512"><path d="M387.938 84.104c-14.737 0-27.097 10.335-30.235 24.137l-33.92 8.48c-5.69-7.06-14.4-11.59-24.154-11.59-17.103 0-31.014 13.912-31.014 31.013 0 4.017.776 7.854 2.173 11.38l-42.548 42.548c-4.87-3.183-10.68-5.042-16.922-5.042-11.417 0-21.405 6.206-26.79 15.416l-30.562-18.338c.035-.6.057-1.202.057-1.81 0-17.1-13.912-31.012-31.013-31.012-17.1 0-31.013 13.912-31.013 31.013s13.91 31.013 31.012 31.013c10.773 0 20.276-5.523 25.838-13.885l31.465 18.88c.143 16.98 13.994 30.75 31.007 30.75 17.102 0 31.013-13.913 31.013-31.014 0-5.142-1.266-9.993-3.49-14.267l41.426-41.427c5.31 4.256 12.042 6.81 19.36 6.81 17.102 0 31.014-13.912 31.014-31.013 0-1.628-.128-3.227-.37-4.79l28.053-7.013c3.935 12.61 15.72 21.79 29.612 21.79 17.1 0 31.012-13.913 31.012-31.014s-13.913-31.012-31.014-31.012zM123.01 195.54c-8.404 0-15.243-6.838-15.243-15.243 0-8.405 6.84-15.244 15.244-15.244 8.406 0 15.245 6.84 15.245 15.244 0 8.406-6.84 15.244-15.244 15.244zm88.31 35.746c-8.405 0-15.244-6.84-15.244-15.244 0-8.405 6.84-15.244 15.244-15.244 8.405 0 15.244 6.84 15.244 15.244 0 8.405-6.84 15.244-15.244 15.244zm88.31-79.9c-8.406 0-15.245-6.838-15.245-15.243 0-8.405 6.84-15.244 15.244-15.244s15.243 6.838 15.243 15.243c0 8.405-6.84 15.244-15.244 15.244zm88.308-21.025c-8.405 0-15.244-6.838-15.244-15.243s6.84-15.244 15.244-15.244c8.405 0 15.244 6.84 15.244 15.244s-6.84 15.244-15.244 15.244z" fill="#d2d2d2"/><path d="M435.246 309.082h-22.603V169.785c0-4.356-3.53-7.885-7.885-7.885h-29.436c-4.356 0-7.885 3.53-7.885 7.885v139.297h-44.505V195.016c0-4.356-3.53-7.885-7.885-7.885H285.61c-4.355 0-7.884 3.53-7.884 7.886v114.066H233.22v-42.578c0-4.356-3.53-7.885-7.885-7.885H195.9c-4.356 0-7.885 3.528-7.885 7.884v42.578H143.51v-63.604c0-4.356-3.53-7.885-7.885-7.885H106.19c-4.356 0-7.885 3.53-7.885 7.885v63.604H75.702c-4.354 0-7.885 3.53-7.885 7.885s3.53 7.885 7.885 7.885h359.544c4.356 0 7.885-3.53 7.885-7.885s-3.528-7.885-7.884-7.885zm-307.504 0h-13.667v-55.72h13.667v55.72zm89.71 0h-13.667V274.39h13.667v34.692zm89.71 0h-13.666v-106.18h13.667v106.18zm89.712 0h-13.667V177.67h13.667V309.08z" fill="#d2d2d2"/><path d="M491.49 334.313h-17.345V39.423C474.145 17.686 456.46 0 434.72 0H77.28C55.54 0 37.855 17.685 37.855 39.424v203.952c0 4.356 3.53 7.885 7.885 7.885s7.886-3.528 7.886-7.884V72.89H375.85c4.355 0 7.884-3.53 7.884-7.885s-3.53-7.885-7.885-7.885H53.624V39.424c0-13.042 10.612-23.654 23.654-23.654h357.44c13.042 0 23.654 10.612 23.654 23.654V57.12H417.9c-4.356 0-7.885 3.53-7.885 7.885s3.53 7.885 7.885 7.885h40.475v261.423H53.625V280.17c0-4.355-3.53-7.884-7.885-7.884s-7.885 3.53-7.885 7.885v54.143H20.51c-4.357 0-7.886 3.53-7.886 7.885v33.642c0 4.356 3.53 7.885 7.885 7.885h227.605v51.844l-66.897 62.78c-7.404 6.952 3.384 18.446 10.793 11.498l56.106-52.652v42.697c0 4.356 3.53 7.885 7.885 7.885 4.357 0 7.886-3.53 7.886-7.885v-41.126l56.193 51.16c7.466 6.8 18.148-4.8 10.615-11.66l-66.81-60.826v-53.716h227.607c4.356 0 7.885-3.53 7.885-7.885v-33.643c-.002-4.355-3.53-7.884-7.886-7.884zm-7.884 33.64H28.394v-17.87h455.212v17.87z" fill="#d2d2d2"/></svg>