<svg xmlns="http://www.w3.org/2000/svg" viewBox="0 0 512 512" width="512" height="512"><path d="M256 176.156c-17.146 0-31.094 13.948-31.094 31.094v210.097c0 17.146 13.948 31.094 31.094 31.094s31.094-13.948 31.094-31.093V207.25c0-17.146-13.948-31.094-31.094-31.094zm14.134 241.19c0 7.795-6.34 14.135-14.134 14.135s-14.134-6.34-14.134-14.133V207.25c0-7.794 6.34-14.134 14.134-14.134s14.134 6.34 14.134 14.134v210.097zM207.935 416.51l-5.653-210.097c-.458-16.967-14.1-30.258-31.055-30.258-.288 0-.58.003-.864.012-17.14.462-30.707 14.78-30.246 31.92l5.653 210.096c.457 16.966 14.105 30.257 31.07 30.257.283 0 .566-.003.85-.01 17.138-.463 30.706-14.782 30.245-31.92zm-30.704 14.966l-.39.005c-7.708 0-13.91-6.04-14.118-13.753L157.07 207.63c-.21-7.79 5.96-14.3 13.754-14.51l.4-.005c7.7 0 13.895 6.042 14.103 13.755l5.653 210.096c.21 7.79-5.96 14.3-13.75 14.51zM341.634 176.17c-.283-.008-.564-.01-.845-.01-16.967 0-30.615 13.29-31.072 30.256l-5.653 210.096c-.46 17.138 13.107 31.457 30.25 31.92.283.006.564.01.844.01 16.965 0 30.613-13.29 31.07-30.258l5.653-210.096c.46-17.138-13.107-31.457-30.25-31.92zm7.643 241.557c-.208 7.712-6.41 13.754-14.118 13.754l-.392-.004c-7.79-.21-13.96-6.72-13.75-14.51l5.654-210.096c.208-7.712 6.41-13.754 14.118-13.754l.39.005c7.79.21 13.96 6.72 13.75 14.51l-5.653 210.097z" fill="#d2d2d2"/><path d="M399.75 413.943c-4.695-.277-8.673 3.33-8.928 8.008l-3.97 73.09H125.147l-15.65-288.146c-.253-4.675-4.236-8.27-8.928-8.008-4.678.254-8.263 4.25-8.01 8.928l16.087 296.167c.244 4.5 3.963 8.02 8.468 8.02h277.768c4.505 0 8.224-3.52 8.468-8.02l4.406-81.11c.256-4.677-3.33-8.673-8.006-8.927zM412.008 45.387h-85.16V27.485C326.847 12.33 314.517 0 299.363 0h-86.728C197.48 0 185.15 12.33 185.15 27.485v17.902H99.99c-27.627 0-50.103 22.476-50.103 50.103v25.59c0 4.682 3.797 8.48 8.48 8.48H88.31l2.408 44.334c.245 4.52 3.987 8.02 8.46 8.02.155 0 .31-.003.467-.012 4.677-.254 8.262-4.25 8.008-8.928l-2.357-43.415h214.118c4.683 0 8.48-3.798 8.48-8.48s-3.797-8.48-8.48-8.48H66.85V95.49c0-18.276 14.866-33.144 33.142-33.144H412.01c18.275 0 33.143 14.867 33.143 33.143v17.107h-91.815c-4.683 0-8.48 3.797-8.48 8.48s3.797 8.48 8.48 8.48h53.366L392.667 388.03c-.254 4.676 3.33 8.672 8.008 8.927.157.01.312.012.468.012 4.473 0 8.214-3.502 8.46-8.02l14.087-259.394h29.944c4.683 0 8.48-3.797 8.48-8.48V95.49c-.003-27.627-22.478-50.103-50.106-50.103zm-102.12 0H202.112V27.485c0-5.803 4.72-10.524 10.524-10.524h86.728c5.803 0 10.524 4.722 10.524 10.525v17.902z" fill="#d2d2d2"/></svg>